# xmcd
#
# Track frame offsets: 
#        150
#        13333
#        31561
#        50424
#        69961
#        93179
#        112283
#        135109
#        152763
#        167341
#        184215
#        203230
#
# Disc length: 2932 seconds
#
# Revision: 0
# Processed by: cddbd v1.5.2PL0 Copyright (c) Steve Scherf et al.
# Submitted via: ExactAudioCopy v0.99pb4
#
DISCID=920b720c
DTITLE=Riko - What's On A Man's Mind
DYEAR=2007
DGENRE=R&B
TTITLE0=(Intro) Still Here
TTITLE1=Pimp Scripture
TTITLE2=Shorty
TTITLE3=Shorty (Remix)
TTITLE4=Freaky Fun
TTITLE5=I Want You
TTITLE6=All About You
TTITLE7=Love Triangle
TTITLE8=Day Dreamer
TTITLE9=Sunshine
TTITLE10=Summer Flossin'
TTITLE11=Lets Married
EXTD=
EXTT0=
EXTT1=
EXTT2=
EXTT3=
EXTT4=
EXTT5=
EXTT6=
EXTT7=
EXTT8=
EXTT9=
EXTT10=
EXTT11=
PLAYORDER=
